<svg xmlns="http://www.w3.org/2000/svg" xmlns:xlink="http://www.w3.org/1999/xlink" version="1.1" x="0px" y="0px" viewBox="0 0 64 80" style="enable-background:new 0 0 64 64;" xml:space="preserve"><g><path d="M45,2H19c-1.6543,0-3,1.3457-3,3v54c0,1.6543,1.3457,3,3,3h26c1.6543,0,3-1.3457,3-3V5C48,3.3457,46.6543,2,45,2z M18,14   h28v36H18V14z M46,59c0,0.5513-0.4487,1-1,1H19c-0.5513,0-1-0.4487-1-1v-7h28V59z M18,12V5c0-0.5513,0.4487-1,1-1h26   c0.5513,0,1,0.4487,1,1v7H18z M37,9H27c-1.3081-0.0059-1.3073-1.9944,0-2h10C38.3081,7.0059,38.3073,8.9944,37,9z M32,59   c-4.0004-0.1036-3.9996-5.8969,0.0001-6C36.0004,53.1036,35.9996,58.8969,32,59z M32,55c-1.3221,0.007-1.322,1.9932,0.0001,2   C33.3221,56.993,33.322,55.0068,32,55z M24,22h-2v2c0.0191,1.2971-2.019,1.2977-2,0v-3c0-0.5522,0.4478-1,1-1h3   C25.2971,19.9809,25.2977,22.019,24,22z M44,21v3c0.0191,1.2971-2.019,1.2977-2,0v-2h-2c-1.2977,0.019-1.2971-2.0192,0-2h3   C43.5522,20,44,20.4478,44,21z M24,44h-3c-0.5522,0-1-0.4478-1-1v-3c-0.019-1.2977,2.0191-1.2971,2,0v2h2   C25.2977,41.981,25.2971,44.0191,24,44z M43,44h-3c-1.2977,0.019-1.2971-2.0191,0-2h2v-2c-0.019-1.2977,2.0191-1.2971,2,0v3   C44,43.5522,43.5522,44,43,44z M28,41h-4c-0.5522,0-1-0.4478-1-1v-4c0-0.5522,0.4478-1,1-1h4c0.5522,0,1,0.4478,1,1v4   C29,40.5522,28.5522,41,28,41z M25,39h2v-2h-2V39z M40,29h-4c-0.5522,0-1-0.4478-1-1v-4c0-0.5522,0.4478-1,1-1h4   c0.5522,0,1,0.4478,1,1v4C41,28.5522,40.5522,29,40,29z M37,27h2v-2h-2V27z M40,41h-4c-0.5522,0-1-0.4478-1-1v-4   c0-0.5522,0.4478-1,1-1h4c0.5522,0,1,0.4478,1,1v4C41,40.5522,40.5522,41,40,41z M37,39h2v-2h-2V39z M28,29h-4   c-0.5522,0-1-0.4478-1-1v-4c0-0.5522,0.4478-1,1-1h4c0.5522,0,1,0.4478,1,1v4C29,28.5522,28.5522,29,28,29z M25,27h2v-2h-2V27z    M33,24v8c0,0.5522-0.4478,1-1,1h-3c-1.2977,0.019-1.2971-2.0191,0-2h2v-7C31.0059,22.6919,32.9944,22.6927,33,24z M26,33h-2   c-1.3073-0.0056-1.3081-1.9941,0-2h2C27.2972,30.9809,27.2978,33.0189,26,33z M40,33h-5c-1.2971,0.0191-1.2977-2.019,0-2h5   C41.2971,30.9809,41.2977,33.019,40,33z M33,35v5c-0.0059,1.3081-1.9944,1.3073-2,0v-5C30.981,33.7023,33.0191,33.7029,33,35z"/></g><text x="0" y="84" fill="#ffffff" font-size="5px" font-weight="bold" font-family="'Helvetica Neue', Helvetica, Arial-Unicode, Arial, Sans-serif">from the Noun Project</text></svg>